<?xml version="1.0" encoding="utf-8"?>
<!-- Generator: Adobe Illustrator 25.3.0, SVG Export Plug-In . SVG Version: 6.00 Build 0)  -->
<svg version="1.1" id="Layer_1" xmlns="http://www.w3.org/2000/svg" xmlns:xlink="http://www.w3.org/1999/xlink" x="0px" y="0px"
	 viewBox="0 0 1228 255" style="enable-background:new 0 0 1228 255;" xml:space="preserve">
<style type="text/css">
	.st0{fill:#FFFFFF;}
	.st1{fill:#FFFFFF;stroke:#282828;stroke-miterlimit:10;}
	.st2{fill:url(#SVGID_1_);}
</style>
<g>
	<path class="st0" d="M92.2,7.9h-46l0,0c0-4.4,3.6-8,8-8h38V7.9z"/>
	<rect x="46.2" y="7.9" class="st0" width="46" height="8"/>
	<path class="st1" d="M168.9,245.9L168.9,245.9v-61.3h61.3l0,0C230.2,218.4,202.7,245.9,168.9,245.9z"/>
	<rect x="107.5" y="184.6" class="st1" width="61.3" height="61.3"/>
	<path class="st1" d="M107.5,245.9H70.4c-13.4,0-24.2-10.8-24.2-24.2v-37.1h61.3V245.9L107.5,245.9z"/>
	<rect x="168.9" y="123.2" class="st1" width="61.3" height="61.3"/>
	<rect x="107.5" y="123.2" class="st1" width="61.3" height="61.3"/>
	<rect x="46.2" y="123.2" class="st1" width="61.3" height="61.3"/>
	<path class="st1" d="M230.2,123.2h-61.3V62l0,0C202.7,62,230.2,89.4,230.2,123.2L230.2,123.2z"/>
	<rect x="107.5" y="62" class="st1" width="61.3" height="61.3"/>
	<g>
		
			<linearGradient id="SVGID_1_" gradientUnits="userSpaceOnUse" x1="46.2" y1="629.2479" x2="46.2" y2="524.7166" gradientTransform="matrix(1 0 0 1 0 -513)">
			<stop  offset="4.262232e-07" style="stop-color:#FFCF00"/>
			<stop  offset="1" style="stop-color:#FD6600"/>
		</linearGradient>
		<path class="st2" d="M92.2,107.9h-92V52.2c0-20.1,16.3-36.3,36.3-36.3h55.7V107.9z"/>
	</g>
</g>
<g>
	<path class="st0" d="M392.2,130.5v18c0,31-20,50.5-55.2,50.5h-50.9V79.9H337C372.2,79.9,392.2,99.4,392.2,130.5z M366.9,148.5v-18
		c0-17.3-10.8-28.9-29.9-28.9h-25.6v75.8H337C356.1,177.4,366.9,165.8,366.9,148.5z"/>
	<path class="st0" d="M413.7,66.6c8.5,0,12.1,3.8,12.1,12.3s-3.6,12.3-12.1,12.3c-8.5,0-12.1-3.8-12.1-12.3S405.2,66.6,413.7,66.6z
		 M425.8,98.3v101h-24.2v-101H425.8z"/>
	<path class="st0" d="M486.8,238.3c-28.7,0-46.2-13-48-35.9H463c1.8,9.7,10.5,15.3,23.8,15.3c17.3,0,27.2-9.2,27.2-25.1V180
		c-6.9,8.5-18,13.2-32.8,13.2c-29.4,0-46.2-14.8-46.2-40.8V138c0-27.1,16.8-42.6,46.2-42.6c14.8,0,26,4.9,32.8,13.7V98.3h24.2v94.4
		C538.2,221.7,519.4,238.3,486.8,238.3L486.8,238.3z M486.6,172.8c17.5,0,27.4-6.9,27.4-18.6v-18c0-12.8-9.9-20.4-27.4-20.4
		c-17.5,0-27.4,8.1-27.4,22.2v14.4C459.2,165.2,469.1,172.8,486.6,172.8z"/>
	<path class="st0" d="M563.1,66.6c8.5,0,12.1,3.8,12.1,12.3s-3.6,12.3-12.1,12.3c-8.5,0-12.1-3.8-12.1-12.3S554.6,66.6,563.1,66.6z
		 M575.2,98.3v101H551v-101H575.2z"/>
	<path class="st0" d="M683.8,101.6h-39.7V199h-25.3v-97.4h-39.7V79.9h104.6V101.6z"/>
	<path class="st0" d="M727.6,181.7c15,0,23.6-5.6,23.6-15.3h24.2c0,22.9-17.5,35.9-47.8,35.9c-32.8,0-51.6-16.8-51.6-46.2v-14.4
		c0-29.4,18.8-46.2,51.6-46.2c31.6,0,49.8,16.8,49.8,46.2V156h-77.2C700.2,172.3,710.1,181.7,727.6,181.7z M752.7,135.5
		c-2.2-12.4-11-19.5-25.1-19.5c-15.2,0-24.7,7-26.9,19.5H752.7z"/>
	<path class="st0" d="M807.8,156c0,16.2,9.9,25.6,27.4,25.6c13.9,0,23.6-5.6,23.6-15.3h24.2c0,22.9-18.6,35.9-47.8,35.9
		c-32.8,0-51.6-16.8-51.6-46.2v-14.4c0-29.4,18.8-46.2,51.6-46.2c29.2,0,47.8,13,47.8,35.9h-24.2c0-9.7-9.7-15.3-23.6-15.3
		c-17.5,0-27.4,9.4-27.4,25.6V156z"/>
	<path class="st0" d="M917.2,79.9v48.7h52.3V79.9h25.3V199h-25.3v-48.7h-52.3V199H892V79.9H917.2z"/>
	<path class="st0" d="M1077.7,199.3v-11c-6.3,9-16.1,13.9-28.9,13.9c-26.9,0-42.2-16.2-42.2-44.4V98.3h24.2v59.5
		c0,15.2,8.5,23.8,23.5,23.8s23.5-8.7,23.5-23.8V98.3h24.2v101H1077.7z"/>
	<path class="st0" d="M1138.7,69.4v40.4c6.7-9.4,17.7-14.4,32.8-14.4c29.4,0,46.2,16.8,46.2,46.2V156c0,29.4-16.8,46.2-46.2,46.2
		c-15.2,0-26.2-5.1-32.8-14.4v11.5h-24.2V69.4H1138.7z M1193.6,156v-14.4c0-16.2-9.9-25.8-27.4-25.8c-17.5,0-27.4,8.8-27.4,24v18
		c0,15.2,9.9,24,27.4,24C1183.7,181.8,1193.6,172.3,1193.6,156z"/>
</g>
</svg>
